HIERARCHY
ROOT Hips
{
    OFFSET   0.000000   0.000000   0.000000
    CHANNELS 6 Xposition Yposition Zposition Zrotation Xrotation Yrotation
    JOINT Chest
    {
        OFFSET   0.000000   8.007240   0.000000
        CHANNELS 3 Zrotation Xrotation Yrotation
        JOINT Chest2
        {
            OFFSET   0.000000  22.077100   0.000000
            CHANNELS 3 Zrotation Xrotation Yrotation
            JOINT Neck
            {
                OFFSET   0.000000  23.254800   0.000000
                CHANNELS 3 Zrotation Xrotation Yrotation
                JOINT Head
                {
                    OFFSET   0.000000  14.370000   1.956600
                    CHANNELS 3 Zrotation Xrotation Yrotation
                    End Site
                    {
                        OFFSET   0.000000  19.566000   0.000000
                    }
                }
            }
            JOINT LeftCollar
            {
                OFFSET   3.911900  19.017000  -0.467064
                CHANNELS 3 Zrotation Xrotation Yrotation
                JOINT LeftShoulder
                {
                    OFFSET  10.383700   0.000000   0.000000
                    CHANNELS 3 Zrotation Xrotation Yrotation
                    JOINT LeftElbow
                    {
                        OFFSET  26.662100   0.001476   0.000517
                        CHANNELS 3 Zrotation Xrotation Yrotation
                        JOINT LeftWrist
                        {
                            OFFSET  28.869000  -0.000025  -0.000106
                            CHANNELS 3 Zrotation Xrotation Yrotation
                            JOINT LeftFinger0
                            {
                                OFFSET   2.044660  -2.323460   3.252850
                                CHANNELS 3 Zrotation Xrotation Yrotation
                                JOINT LeftFinger01
                                {
                                    OFFSET   3.088130   0.000000   0.000000
                                    CHANNELS 3 Zrotation Xrotation Yrotation
                                    JOINT LeftFinger02
                                    {
                                        OFFSET   2.639460   0.000000   0.000000
                                        CHANNELS 3 Zrotation Xrotation Yrotation
                                        End Site
                                        {
                                            OFFSET   2.582190   0.000000   0.000000
                                        }
                                    }
                                }
                            }
                            JOINT LeftFinger1
                            {
                                OFFSET   8.364480   0.000000   3.252850
                                CHANNELS 3 Zrotation Xrotation Yrotation
                                JOINT LeftFinger11
                                {
                                    OFFSET   4.646930   0.000000   0.000000
                                    CHANNELS 3 Zrotation Xrotation Yrotation
                                    JOINT LeftFinger12
                                    {
                                        OFFSET   2.323460   0.000000   0.000000
                                        CHANNELS 3 Zrotation Xrotation Yrotation
                                        End Site
                                        {
                                            OFFSET   2.273050   0.000000   0.000000
                                        }
                                    }
                                }
                            }
                            JOINT LeftFinger2
                            {
                                OFFSET   8.364490   0.000015   1.078090
                                CHANNELS 3 Zrotation Xrotation Yrotation
                                JOINT LeftFinger21
                                {
                                    OFFSET   5.111620   0.000000   0.000000
                                    CHANNELS 3 Zrotation Xrotation Yrotation
                                    JOINT LeftFinger22
                                    {
                                        OFFSET   2.788160   0.000016   0.000000
                                        CHANNELS 3 Zrotation Xrotation Yrotation
                                        End Site
                                        {
                                            OFFSET   2.727660   0.000000   0.000000
                                        }
                                    }
                                }
                            }
                            JOINT LeftFinger3
                            {
                                OFFSET   7.899780   0.000017  -1.078090
                                CHANNELS 3 Zrotation Xrotation Yrotation
                                JOINT LeftFinger31
                                {
                                    OFFSET   4.646930   0.000000   0.000000
                                    CHANNELS 3 Zrotation Xrotation Yrotation
                                    JOINT LeftFinger32
                                    {
                                        OFFSET   2.323470   0.000000   0.000000
                                        CHANNELS 3 Zrotation Xrotation Yrotation
                                        End Site
                                        {
                                            OFFSET   2.273050   0.000000   0.000000
                                        }
                                    }
                                }
                            }
                            JOINT LeftFinger4
                            {
                                OFFSET   7.435090   0.000000  -3.252850
                                CHANNELS 3 Zrotation Xrotation Yrotation
                                JOINT LeftFinger41
                                {
                                    OFFSET   3.717550   0.000000   0.000000
                                    CHANNELS 3 Zrotation Xrotation Yrotation
                                    JOINT LeftFinger42
                                    {
                                        OFFSET   1.858770   0.000000   0.000000
                                        CHANNELS 3 Zrotation Xrotation Yrotation
                                        End Site
                                        {
                                            OFFSET   1.818440   0.000000   0.000000
                                        }
                                    }
                                }
                            }
                        }
                    }
                }
            }
            JOINT RightCollar
            {
                OFFSET  -3.911900  19.017000  -0.467063
                CHANNELS 3 Zrotation Xrotation Yrotation
                JOINT RightShoulder
                {
                    OFFSET -10.383700   0.000019   0.000000
                    CHANNELS 3 Zrotation Xrotation Yrotation
                    JOINT RightElbow
                    {
                        OFFSET -26.662100   0.001175   0.000102
                        CHANNELS 3 Zrotation Xrotation Yrotation
                        JOINT RightWrist
                        {
                            OFFSET -28.869000   0.000016  -0.000079
                            CHANNELS 3 Zrotation Xrotation Yrotation
                            JOINT RightFinger0
                            {
                                OFFSET  -2.044660  -2.323490   3.252850
                                CHANNELS 3 Zrotation Xrotation Yrotation
                                JOINT RightFinger01
                                {
                                    OFFSET  -3.088140   0.000000   0.000000
                                    CHANNELS 3 Zrotation Xrotation Yrotation
                                    JOINT RightFinger02
                                    {
                                        OFFSET  -2.639460   0.000000   0.000000
                                        CHANNELS 3 Zrotation Xrotation Yrotation
                                        End Site
                                        {
                                            OFFSET  -2.582190   0.000000   0.000000
                                        }
                                    }
                                }
                            }
                            JOINT RightFinger1
                            {
                                OFFSET  -8.364480   0.000000   3.252850
                                CHANNELS 3 Zrotation Xrotation Yrotation
                                JOINT RightFinger11
                                {
                                    OFFSET  -4.646930   0.000000   0.000000
                                    CHANNELS 3 Zrotation Xrotation Yrotation
                                    JOINT RightFinger12
                                    {
                                        OFFSET  -2.323470   0.000000   0.000000
                                        CHANNELS 3 Zrotation Xrotation Yrotation
                                        End Site
                                        {
                                            OFFSET  -2.273050   0.000000   0.000000
                                        }
                                    }
                                }
                            }
                            JOINT RightFinger2
                            {
                                OFFSET  -8.364480   0.000000   1.078090
                                CHANNELS 3 Zrotation Xrotation Yrotation
                                JOINT RightFinger21
                                {
                                    OFFSET  -5.111620   0.000000   0.000000
                                    CHANNELS 3 Zrotation Xrotation Yrotation
                                    JOINT RightFinger22
                                    {
                                        OFFSET  -2.788160   0.000000   0.000000
                                        CHANNELS 3 Zrotation Xrotation Yrotation
                                        End Site
                                        {
                                            OFFSET  -2.727660   0.000000   0.000000
                                        }
                                    }
                                }
                            }
                            JOINT RightFinger3
                            {
                                OFFSET  -7.899780   0.000000  -1.078090
                                CHANNELS 3 Zrotation Xrotation Yrotation
                                JOINT RightFinger31
                                {
                                    OFFSET  -4.646930   0.000000   0.000000
                                    CHANNELS 3 Zrotation Xrotation Yrotation
                                    JOINT RightFinger32
                                    {
                                        OFFSET  -2.323470   0.000000   0.000000
                                        CHANNELS 3 Zrotation Xrotation Yrotation
                                        End Site
                                        {
                                            OFFSET  -2.273050   0.000000   0.000000
                                        }
                                    }
                                }
                            }
                            JOINT RightFinger4
                            {
                                OFFSET  -7.435090   0.000000  -3.252850
                                CHANNELS 3 Zrotation Xrotation Yrotation
                                JOINT RightFinger41
                                {
                                    OFFSET  -3.717550   0.000000   0.000000
                                    CHANNELS 3 Zrotation Xrotation Yrotation
                                    JOINT RightFinger42
                                    {
                                        OFFSET  -1.858770   0.000000   0.000000
                                        CHANNELS 3 Zrotation Xrotation Yrotation
                                        End Site
                                        {
                                            OFFSET  -1.818440   0.000000   0.000000
                                        }
                                    }
                                }
                            }
                        }
                    }
                }
            }
        }
    }
    JOINT LeftHip
    {
        OFFSET   9.783040   0.000000   0.000000
        CHANNELS 3 Zrotation Xrotation Yrotation
        JOINT LeftKnee
        {
            OFFSET   0.000032 -41.789100  -0.002222
            CHANNELS 3 Zrotation Xrotation Yrotation
            JOINT LeftAnkle
            {
                OFFSET   0.000087 -41.133200  -0.000135
                CHANNELS 3 Zrotation Xrotation Yrotation
                JOINT LeftToe
                {
                    OFFSET   0.000000  -6.358960  14.674500
                    CHANNELS 3 Zrotation Xrotation Yrotation
                    End Site
                    {
                        OFFSET   0.000000   0.000000   3.913200
                    }
                }
            }
        }
    }
    JOINT RightHip
    {
        OFFSET  -9.783040   0.000000   0.000000
        CHANNELS 3 Zrotation Xrotation Yrotation
        JOINT RightKnee
        {
            OFFSET   0.000047 -41.789100  -0.000896
            CHANNELS 3 Zrotation Xrotation Yrotation
            JOINT RightAnkle
            {
                OFFSET  -0.000117 -41.133300  -0.000248
                CHANNELS 3 Zrotation Xrotation Yrotation
                JOINT RightToe
                {
                    OFFSET   0.000000  -6.358970  14.674500
                    CHANNELS 3 Zrotation Xrotation Yrotation
                    End Site
                    {
                        OFFSET   0.000000   0.000000   3.913200
                    }
                }
            }
        }
    }
}
MOTION
Frames: 5
Frame Time:   0.016667
 -0.185518  89.577700  -0.999274  -1.437850  -5.009660  -0.763881   0.082647   2.401630  -0.194743   0.173714   4.803020  -0.393474   0.006703  -0.216805   0.003265   0.011008  -0.440519   1.508090  -2.678730  -0.536772   0.943324 -74.898300  12.288800   0.933584  -1.213100  -0.691988 -13.122400  11.833300  -2.835290  -0.747304  40.262000  29.591800 -59.451500 -27.190400   0.000000   0.000000  -8.595170  -0.001632  -0.002461 -29.823700   5.472630  -9.440730 -24.771500  -0.002688  -0.005860 -17.340000  -0.001823  -0.002275 -28.633400   0.646257  -1.168490 -37.952900  -0.001487  -0.005194 -25.276600  -0.004840  -0.001227 -28.361300   0.640633  -1.171530 -34.774900  -0.000543   0.000723 -23.160100  -0.000533  -0.000824 -29.252400   0.358772  -0.638525 -43.881600  -0.001033  -0.001885 -29.225200  -0.000941  -0.003649   9.713800  -0.053646   1.095040  68.096300   3.504700  -7.641970   1.193070  -6.912860   6.186610 -12.945400  -3.884420   5.365780 -48.449800  34.228000  70.421600  13.931400  -0.003900   0.001071   1.965680  -0.000532   0.002093  37.758800  11.331200  14.240000  32.054900  -0.008030  -0.000200  22.438400   0.000481   0.000100  32.157500   4.916400   7.743810  48.735600  -0.005069  -0.011796  32.457900   0.003824   0.003747  28.554600   3.859610   7.044560  43.006400  -0.003173  -0.008151  28.642300  -0.010095  -0.003676  39.269400  -0.863074  -1.055660  58.916100  -0.003752  -0.002999  39.238100  -0.002804   0.004717   1.728840   7.058100  -2.032970   0.915986   0.111184   8.825910  -1.209150  -2.654280  -1.578900  -0.000000   0.000000  -0.000000   1.942130   6.270670  -2.051500   0.243990   1.296500 -12.077800  -0.249967  -3.621520   4.338070   0.000000   0.000000   0.000000
 -0.186280  89.577700  -1.006950  -1.437980  -5.019350  -0.763892   0.082844   2.410630  -0.191663   0.174048   4.820980  -0.387334   0.013085  -0.216794   0.003267   0.021525  -0.439953   1.501930  -2.676470  -0.536789   0.943328 -74.885300  12.312000   0.933068  -1.215970  -0.704303 -13.129300  11.841900  -2.845650  -0.757123  40.262400  29.588100 -59.424500 -27.191100   0.000000   0.000026  -8.595520  -0.001603  -0.002464 -29.823800   5.472460  -9.440730 -24.771500  -0.002684  -0.005860 -17.340000  -0.001822  -0.002278 -28.633400   0.643184  -1.168180 -37.958000  -0.001486  -0.005200 -25.280000  -0.004834  -0.001224 -28.361400   0.637576  -1.171220 -34.779800  -0.000544   0.000723 -23.163400  -0.000534  -0.000820 -29.259300   0.358679  -0.638526 -43.892000  -0.001036  -0.001878 -29.232100  -0.000938  -0.003640   9.713810  -0.054588   1.095030  68.086200   3.528200  -7.625870   1.203250  -6.915450   6.191260 -12.932300  -3.896570   5.366250 -48.450900  34.220800  70.409600  13.969700  -0.003891   0.001050   1.984840  -0.000525   0.002082  37.745400  11.331000  14.245600  32.044400  -0.008029  -0.000197  22.431000   0.000477   0.000099  32.165200   4.916390   7.743640  48.747400  -0.005069  -0.011806  32.465700   0.003824   0.003740  28.554700   3.859420   7.044310  43.014300  -0.003170  -0.008155  28.647600  -0.010103  -0.003677  39.268800  -0.863075  -1.055660  58.915200  -0.003750  -0.002999  39.237500  -0.002800   0.004711   1.729930   7.094320  -2.032660   0.917545   0.054678   8.826690  -1.206040  -2.622020  -1.578460   0.000000   0.000000   0.000000   1.945590   6.268780  -2.051560   0.244956   1.300950 -12.081600  -0.250916  -3.620680   4.345150  -0.000000   0.000000   0.000000
 -0.188300  89.577600  -1.020380  -1.438190  -5.035280  -0.763911   0.082952   2.426420  -0.185977   0.174028   4.852550  -0.375979   0.025219  -0.216783   0.003269   0.041462  -0.439389   1.488830  -2.671360  -0.536865   0.943332 -74.863900  12.348700   0.929013  -1.220640  -0.724896 -13.140300  11.850100  -2.868400  -0.772291  40.262900  29.584300 -59.397500 -27.195900   0.000000   0.000066  -8.597940  -0.001553  -0.002467 -29.823800   5.472280  -9.440730 -24.771500  -0.002680  -0.005859 -17.340000  -0.001813  -0.002289 -28.633500   0.636677  -1.166010 -37.969100  -0.001485  -0.005218 -25.287400  -0.004816  -0.001214 -28.361500   0.631118  -1.169030 -34.791100  -0.000545   0.000724 -23.170900  -0.000535  -0.000810 -29.270300   0.358524  -0.638526 -43.908400  -0.001039  -0.001860 -29.243000  -0.000935  -0.003620   9.713930  -0.060765   1.095000  68.070900   3.565700  -7.602480   1.218340  -6.921020   6.197630 -12.903800  -3.915670   5.366760 -48.452700  34.211900  70.399000  14.029600  -0.003876   0.001028   2.014810  -0.000513   0.002051  37.731900  11.330700  14.251300  32.033800  -0.008027  -0.000189  22.423700   0.000468   0.000097  32.174200   4.916370   7.743480  48.761000  -0.005068  -0.011830  32.474800   0.003824   0.003722  28.554700   3.859230   7.044060  43.022200  -0.003163  -0.008159  28.652800  -0.010124  -0.003678  39.264500  -0.863075  -1.055660  58.908700  -0.003747  -0.003001  39.233200  -0.002790   0.004697   1.730990   7.130540  -2.032350   0.919106  -0.001828   8.827480  -1.202760  -2.583290  -1.578020  -0.000000   0.000000   0.000000   1.951680   6.266750  -2.051690   0.246181   1.308510 -12.087300  -0.253379  -3.619510   4.352230  -0.000000   0.000000   0.000000
 -0.191552  89.577500  -1.032350  -1.438290  -5.046940  -0.760488   0.082579   2.440110  -0.180436   0.173041   4.879940  -0.364888   0.037896  -0.217953   0.003261   0.062274  -0.441884   1.472370  -2.664040  -0.536958   0.937901 -74.847400  12.370900   0.918005  -1.223980  -0.740091 -13.147200  11.848600  -2.903120  -0.781237  40.249200  29.581700 -59.401100 -27.227900   0.000042   0.000081  -8.613920  -0.001513  -0.002431 -29.840000   5.472400  -9.435650 -24.784500  -0.002684  -0.005864 -17.349100  -0.001794  -0.002309 -28.634000   0.626019  -1.148650 -37.984600  -0.001487  -0.005251 -25.297700  -0.004786  -0.001194 -28.361800   0.620573  -1.151620 -34.809700  -0.000546   0.000724 -23.183300  -0.000532  -0.000792 -29.279300   0.358370  -0.637352 -43.921900  -0.001039  -0.001834 -29.252000  -0.000935  -0.003589   9.716880  -0.075087   1.094940  68.062400   3.592240  -7.591880   1.225350  -6.928800   6.198870 -12.864700  -3.931340   5.365840 -48.439400  34.210600  70.414100  14.069100  -0.003866   0.001037   2.034530  -0.000502   0.001998  37.743500  11.330900  14.246500  32.042900  -0.008021  -0.000178  22.430000   0.000453   0.000096  32.175600   4.916330   7.744000  48.763300  -0.005063  -0.011867  32.476300   0.003820   0.003694  28.554600   3.859270   7.045360  43.020600  -0.003153  -0.008157  28.651700  -0.010153  -0.003678  39.253500  -0.860478  -1.052830  58.892100  -0.003743  -0.003006  39.222100  -0.002773   0.004677   1.730910   7.128770  -2.032410   0.920618   0.008092   8.827480  -1.205220  -2.575740  -1.578080  -0.000000   0.000000   0.000000   1.956980   6.266650  -2.051870   0.244514   1.313660 -12.091000  -0.256916  -3.619100   4.351360  -0.000000   0.000000   0.000000
 -0.195575  89.577400  -1.045320  -1.438160  -5.059600  -0.752221   0.081427   2.456000  -0.173890   0.170562   4.911750  -0.351758   0.052707  -0.222217   0.003246   0.086621  -0.450700   1.452490  -2.656010  -0.537246   0.927616 -74.829500  12.396300   0.900423  -1.228180  -0.758403 -13.155100  11.843300  -2.934460  -0.790096  40.223300  29.578300 -59.406500 -27.262600   0.000105   0.000110  -8.631270  -0.001465  -0.002361 -29.864400   5.472790  -9.430580 -24.804200  -0.002691  -0.005874 -17.362900  -0.001770  -0.002337 -28.634400   0.618794  -1.133160 -38.000900  -0.001488  -0.005293 -25.308600  -0.004746  -0.001169 -28.362100   0.613428  -1.136080 -34.825900  -0.000548   0.000724 -23.194000  -0.000528  -0.000768 -29.284300   0.358278  -0.636178 -43.929400  -0.001039  -0.001799 -29.257000  -0.000934  -0.003550   9.724280  -0.095537   1.094900  68.054400   3.616780  -7.583640   1.232310  -6.936710   6.200250 -12.823500  -3.940090   5.358760 -48.420500  34.215300  70.435800  14.104400  -0.003852   0.001046   2.052180  -0.000490   0.001931  37.755100  11.331200  14.241600  32.052000  -0.008011  -0.000165  22.436400   0.000434   0.000094  32.175500   4.916250   7.746840  48.763600  -0.005057  -0.011916  32.476500   0.003814   0.003656  28.554300   3.859570   7.049000  43.009500  -0.003141  -0.008156  28.644300  -0.010191  -0.003678  39.232200  -0.853920  -1.045660  58.860000  -0.003737  -0.003012  39.200700  -0.002751   0.004650   1.730840   7.125500  -2.032860   0.923182   0.026607   8.827430  -1.209680  -2.574660  -1.578560  -0.000000   0.000000   0.000000   1.963140   6.266540  -2.052030   0.240815   1.321310 -12.093700  -0.261599  -3.618890   4.345570   0.000000   0.000000   0.000000
